<svg xmlns="http://www.w3.org/2000/svg" xmlns:xlink="http://www.w3.org/1999/xlink" width="700pt" height="700pt" version="1.1" viewBox="0 0 700 700">
 <defs>
  <symbol id="o" overflow="visible">
   <path d="m29.312-1.75c-1.5117 0.78125-3.0898 1.3711-4.7344 1.7656-1.6367 0.40625-3.3398 0.60938-5.1094 0.60938-5.3125 0-9.5273-1.4844-12.641-4.4531-3.1055-2.9688-4.6562-7-4.6562-12.094s1.5508-9.125 4.6562-12.094c3.1133-2.9688 7.3281-4.4531 12.641-4.4531 1.7695 0 3.4727 0.19922 5.1094 0.59375 1.6445 0.39844 3.2227 0.99219 4.7344 1.7812v6.5938c-1.5312-1.0391-3.0391-1.8008-4.5156-2.2812-1.4805-0.48828-3.0391-0.73438-4.6719-0.73438-2.9375 0-5.2461 0.94531-6.9219 2.8281-1.6797 1.875-2.5156 4.4648-2.5156 7.7656 0 3.293 0.83594 5.8828 2.5156 7.7656 1.6758 1.875 3.9844 2.8125 6.9219 2.8125 1.6328 0 3.1914-0.23828 4.6719-0.71875 1.4766-0.48828 2.9844-1.2539 4.5156-2.2969z"/>
  </symbol>
  <symbol id="c" overflow="visible">
   <path d="m21.453-17.406c-0.67969-0.3125-1.3516-0.53906-2.0156-0.6875-0.65625-0.15625-1.3203-0.23438-1.9844-0.23438-1.9688 0-3.4844 0.63281-4.5469 1.8906-1.0547 1.2617-1.5781 3.0703-1.5781 5.4219v11.016h-7.6562v-23.922h7.6562v3.9219c0.97656-1.5625 2.1016-2.7031 3.375-3.4219 1.2812-0.71875 2.8125-1.0781 4.5938-1.0781 0.25 0 0.52344 0.011719 0.82812 0.03125 0.30078 0.023438 0.73438 0.070312 1.2969 0.14062z"/>
  </symbol>
  <symbol id="b" overflow="visible">
   <path d="m27.562-12.031v2.1875h-17.891c0.1875 1.793 0.83203 3.1367 1.9375 4.0312 1.1133 0.89844 2.6719 1.3438 4.6719 1.3438 1.6016 0 3.25-0.23438 4.9375-0.70312 1.6875-0.47656 3.4219-1.2031 5.2031-2.1719v5.8906c-1.8047 0.6875-3.6094 1.2031-5.4219 1.5469-1.8125 0.35156-3.6211 0.53125-5.4219 0.53125-4.3359 0-7.7031-1.0977-10.109-3.2969-2.3984-2.207-3.5938-5.2969-3.5938-9.2656 0-3.9062 1.1758-6.9727 3.5312-9.2031 2.3633-2.2383 5.6094-3.3594 9.7344-3.3594 3.7578 0 6.7695 1.1367 9.0312 3.4062 2.2578 2.2617 3.3906 5.2812 3.3906 9.0625zm-7.8594-2.5312c0-1.457-0.42969-2.6289-1.2812-3.5156-0.84375-0.89453-1.9492-1.3438-3.3125-1.3438-1.4922 0-2.6992 0.41797-3.625 1.25-0.91797 0.83594-1.4922 2.0391-1.7188 3.6094z"/>
  </symbol>
  <symbol id="a" overflow="visible">
   <path d="m14.391-10.766c-1.5938 0-2.793 0.27344-3.5938 0.8125-0.80469 0.54297-1.2031 1.3398-1.2031 2.3906 0 0.96875 0.32031 1.7305 0.96875 2.2812 0.64453 0.54297 1.5469 0.8125 2.7031 0.8125 1.4375 0 2.6445-0.51562 3.625-1.5469 0.98828-1.0312 1.4844-2.3203 1.4844-3.875v-0.875zm11.688-2.8906v13.656h-7.7031v-3.5469c-1.0312 1.4492-2.1875 2.5078-3.4688 3.1719s-2.8398 1-4.6719 1c-2.4805 0-4.4961-0.72266-6.0469-2.1719-1.543-1.4453-2.3125-3.3203-2.3125-5.625 0-2.8125 0.96094-4.8672 2.8906-6.1719 1.9375-1.3125 4.9688-1.9688 9.0938-1.9688h4.5156v-0.60938c0-1.207-0.48047-2.0938-1.4375-2.6562-0.94922-0.5625-2.4375-0.84375-4.4688-0.84375-1.6367 0-3.1562 0.16797-4.5625 0.5-1.4062 0.32422-2.7188 0.8125-3.9375 1.4688v-5.8281c1.6445-0.40625 3.2891-0.70703 4.9375-0.90625 1.6562-0.20703 3.3047-0.3125 4.9531-0.3125 4.3203 0 7.4375 0.85547 9.3438 2.5625 1.9141 1.6992 2.875 4.4609 2.875 8.2812z"/>
  </symbol>
  <symbol id="i" overflow="visible">
   <path d="m12.031-30.719v6.7969h7.875v5.4688h-7.875v10.141c0 1.1172 0.21875 1.8711 0.65625 2.2656 0.4375 0.38672 1.3125 0.57812 2.625 0.57812h3.9375v5.4688h-6.5625c-3.0234 0-5.1641-0.62891-6.4219-1.8906-1.2617-1.2578-1.8906-3.3984-1.8906-6.4219v-10.141h-3.7969v-5.4688h3.7969v-6.7969z"/>
  </symbol>
  <symbol id="h" overflow="visible">
   <path d="m19.953-20.422v-12.812h7.6875v33.234h-7.6875v-3.4531c-1.0547 1.4062-2.2148 2.4375-3.4844 3.0938-1.2734 0.65625-2.7422 0.98438-4.4062 0.98438-2.9492 0-5.3711-1.1719-7.2656-3.5156-1.8867-2.3438-2.8281-5.3594-2.8281-9.0469s0.94141-6.7031 2.8281-9.0469c1.8945-2.3438 4.3164-3.5156 7.2656-3.5156 1.6562 0 3.1172 0.33594 4.3906 1 1.2812 0.65625 2.4453 1.6836 3.5 3.0781zm-5.0469 15.484c1.6445 0 2.8945-0.59766 3.75-1.7969 0.86328-1.1953 1.2969-2.9297 1.2969-5.2031 0-2.2812-0.43359-4.0195-1.2969-5.2188-0.85547-1.1953-2.1055-1.7969-3.75-1.7969-1.625 0-2.8711 0.60156-3.7344 1.7969-0.85547 1.1992-1.2812 2.9375-1.2812 5.2188 0 2.2734 0.42578 4.0078 1.2812 5.2031 0.86328 1.1992 2.1094 1.7969 3.7344 1.7969z"/>
  </symbol>
  <symbol id="g" overflow="visible">
   <path d="m16.406-4.9375c1.6328 0 2.8828-0.59766 3.75-1.7969 0.86328-1.1953 1.2969-2.9297 1.2969-5.2031 0-2.2812-0.43359-4.0195-1.2969-5.2188-0.86719-1.1953-2.1172-1.7969-3.75-1.7969-1.6367 0-2.8906 0.60547-3.7656 1.8125-0.875 1.1992-1.3125 2.9336-1.3125 5.2031 0 2.2617 0.4375 3.9961 1.3125 5.2031 0.875 1.1992 2.1289 1.7969 3.7656 1.7969zm-5.0781-15.484c1.0508-1.3945 2.2188-2.4219 3.5-3.0781 1.2812-0.66406 2.7539-1 4.4219-1 2.9453 0 5.3672 1.1719 7.2656 3.5156 1.8945 2.3438 2.8438 5.3594 2.8438 9.0469s-0.94922 6.7031-2.8438 9.0469c-1.8984 2.3438-4.3203 3.5156-7.2656 3.5156-1.668 0-3.1406-0.33594-4.4219-1s-2.4492-1.6914-3.5-3.0781v3.4531h-7.6562v-33.234h7.6562z"/>
  </symbol>
  <symbol id="f" overflow="visible">
   <path d="m0.53125-23.922h7.6562l6.4219 16.234 5.4688-16.234h7.6562l-10.062 26.188c-1.0117 2.6641-2.1953 4.5234-3.5469 5.5781-1.3438 1.0625-3.1211 1.5938-5.3281 1.5938h-4.4219v-5.0156h2.3906c1.3008 0 2.2422-0.21094 2.8281-0.625 0.59375-0.40625 1.0547-1.1484 1.3906-2.2188l0.20312-0.65625z"/>
  </symbol>
  <symbol id="e" overflow="visible">
   <path d="m1.2969-31.891h7.8906l5.5156 23.172 5.4688-23.172h7.9219l5.4688 23.172 5.5156-23.172h7.8125l-7.5156 31.891h-9.4844l-5.7969-24.25-5.7188 24.25h-9.4844z"/>
  </symbol>
  <symbol id="n" overflow="visible">
   <path d="m3.4219-9.3125v-14.609h7.6875v2.3906c0 1.293-0.011719 2.918-0.03125 4.875-0.011719 1.9609-0.015625 3.2656-0.015625 3.9219 0 1.9297 0.046875 3.3125 0.14062 4.1562 0.10156 0.84375 0.28125 1.4609 0.53125 1.8438 0.3125 0.5 0.71875 0.88672 1.2188 1.1562 0.50781 0.27344 1.0938 0.40625 1.75 0.40625 1.5938 0 2.8438-0.60938 3.75-1.8281 0.91406-1.2266 1.375-2.9297 1.375-5.1094v-11.812h7.6406v23.922h-7.6406v-3.4531c-1.1562 1.3867-2.3828 2.4141-3.6719 3.0781-1.2812 0.66406-2.6992 1-4.25 1-2.7734 0-4.8828-0.84766-6.3281-2.5469-1.4375-1.6953-2.1562-4.1602-2.1562-7.3906z"/>
  </symbol>
  <symbol id="d" overflow="visible">
   <path d="m27.734-14.562v14.562h-7.7031v-11.156c0-2.0625-0.046875-3.4844-0.14062-4.2656-0.085937-0.78125-0.24219-1.3594-0.46875-1.7344-0.30469-0.5-0.71094-0.88281-1.2188-1.1562-0.51172-0.28125-1.0938-0.42188-1.75-0.42188-1.5938 0-2.8516 0.61719-3.7656 1.8438-0.90625 1.2305-1.3594 2.9375-1.3594 5.125v11.766h-7.6562v-23.922h7.6562v3.5c1.1445-1.3945 2.3633-2.4219 3.6562-3.0781 1.3008-0.66406 2.7383-1 4.3125-1 2.7578 0 4.8516 0.85156 6.2812 2.5469 1.4375 1.6875 2.1562 4.1523 2.1562 7.3906z"/>
  </symbol>
  <symbol id="m" overflow="visible">
   <path d="m3.6719-33.234h7.6562v18.094l8.7969-8.7812h8.8906l-11.688 10.969 12.594 12.953h-9.2656l-9.3281-9.9688v9.9688h-7.6562z"/>
  </symbol>
  <symbol id="l" overflow="visible">
   <path d="m4.0156-31.891h8.2188v31.891h-8.2188z"/>
  </symbol>
  <symbol id="k" overflow="visible">
   <path d="m23-23.172v6.2344c-1.0312-0.71875-2.0742-1.2422-3.125-1.5781-1.043-0.34375-2.125-0.51562-3.25-0.51562-2.1367 0-3.8047 0.625-5 1.875-1.1875 1.2422-1.7812 2.9805-1.7812 5.2188 0 2.2305 0.59375 3.9688 1.7812 5.2188 1.1953 1.25 2.8633 1.875 5 1.875 1.1953 0 2.332-0.17578 3.4062-0.53125 1.0703-0.36328 2.0625-0.89453 2.9688-1.5938v6.2656c-1.1875 0.4375-2.4023 0.76562-3.6406 0.98438-1.2305 0.22656-2.4648 0.34375-3.7031 0.34375-4.3125 0-7.6875-1.1094-10.125-3.3281s-3.6562-5.2969-3.6562-9.2344c0-3.9453 1.2188-7.0234 3.6562-9.2344 2.4375-2.2188 5.8125-3.3281 10.125-3.3281 1.25 0 2.4844 0.10938 3.7031 0.32812s2.4297 0.55469 3.6406 1z"/>
  </symbol>
  <symbol id="j" overflow="visible">
   <path d="m15.062-19.031c-1.6992 0-2.9961 0.60938-3.8906 1.8281-0.88672 1.2188-1.3281 2.9766-1.3281 5.2656 0 2.293 0.44141 4.0469 1.3281 5.2656 0.89453 1.2188 2.1914 1.8281 3.8906 1.8281 1.6641 0 2.9375-0.60938 3.8125-1.8281 0.88281-1.2188 1.3281-2.9727 1.3281-5.2656 0-2.2891-0.44531-4.0469-1.3281-5.2656-0.875-1.2188-2.1484-1.8281-3.8125-1.8281zm0-5.4688c4.1133 0 7.3281 1.1094 9.6406 3.3281s3.4688 5.2969 3.4688 9.2344c0 3.9297-1.1562 7.0078-3.4688 9.2344-2.3125 2.2188-5.5273 3.3281-9.6406 3.3281-4.1367 0-7.3711-1.1094-9.7031-3.3281-2.3242-2.2266-3.4844-5.3047-3.4844-9.2344 0-3.9375 1.1602-7.0156 3.4844-9.2344 2.332-2.2188 5.5664-3.3281 9.7031-3.3281z"/>
  </symbol>
 </defs>
 <g>
  <path d="m253.87 533.75h192.26c4.25 0.070312 8.0312-2.9922 8.75-7.3164l0.24219-1.4336h23.625c10.484 0 19.129-3.0273 25.953-6.9648l3.2383 9.7461c1.5234 4.5508 6.4766 7.0352 11.059 5.5312 4.5859-1.5039 7.0703-6.4414 5.5664-10.988l-5.3906-16.207c3.0469-3.4297 4.5664-5.9492 4.5664-5.9492 1.2617-2.1016 1.5938-4.6562 0.91016-7l-35-119.39c-0.66406-2.2227-2.168-4.0938-4.2148-5.2148l-91.684-50.016v-1.1172c14.035-9.9922 26.793-21.668 26.793-21.668 1.6289-1.4844 2.6406-3.5508 2.8164-5.7734l2.9922-38.551c9.3633-5.7227 17.117-15.348 22.137-25.812 5.5156-11.5 7.6328-23.891 5.8828-32.832-2.1016-10.832-8.8398-17.797-20.582-17.797-1.6797 0-3.3594 0.19141-5.0391 0.55859v-10.078l7.543-4.0078 12.828-4.4609c2.6602-0.92969 4.7227-3.082 5.5273-5.7773 0.78906-2.7109 0.24609-5.6328-1.4844-7.8555l-11.918-15.297 10.098-7.2109c1.9766-1.418 3.2695-3.5859 3.5859-6 0.31641-2.3984-0.38281-4.832-1.9414-6.7031-6.3516-7.6641-18.148-15.609-32.129-22.137-20.094-9.3984-44.625-16.031-62.109-16.031-68.18 0-95.254 52.203-95.254 52.203-0.78516 1.5234-1.1172 3.2539-0.94531 4.9688l4.9023 48.004c-0.875-0.125-1.75-0.17578-2.625-0.17578-12.059 0-19.004 8.5234-19.758 21.91-0.73437 12.914 5.1094 31.062 15.258 43.469 6.2148 7.5977 13.984 12.984 22.559 14.699l3.7266 35.16c0.24609 2.4141 1.5078 4.6211 3.4492 6.0898 0 0 6.7188 5.0234 16.188 11.305v11.113l-89.426 52.465c-1.8555 1.0859-3.2539 2.8164-3.9023 4.8633l-37.5 116.88c-0.77344 2.4141-0.47266 5.0391 0.83984 7.2109 0 0 1.3789 2.2734 4.1094 5.4414l-4.25 17.062c-1.1719 4.6719 1.6797 9.4336 6.3672 10.605 4.6758 1.1719 9.4336-1.6797 10.605-6.3711l2.2227-8.8711c6.8086 3.9375 15.453 6.9648 25.938 6.9648h23.625l0.24219 1.4336c0.71875 4.3242 4.5 7.3867 8.75 7.3164zm118.04-163.38c-6.4414 3.7422-13.93 5.8789-21.91 5.8789-6.125 0-11.969-1.2617-17.273-3.5508 5.793 23.5 14.281 57.277 24.188 94.566 6.332-37.625 11.566-72.816 14.996-96.895zm-292.93-2.8711h-0.22656c-4.8281 0-8.75 3.9219-8.75 8.75s3.9219 8.75 8.75 8.75c19.723 0 34.879 19.844 35 43.469v0.28125c0 4.8281 3.9219 8.75 8.75 8.75s8.75-3.9219 8.75-8.75c0-23.746 15.207-43.75 35-43.75 4.8281 0 8.75-3.9219 8.75-8.75 0-4.7969-3.8672-8.6992-8.6445-8.75h-0.10547c-19.793 0-35-20.004-35-43.75v-0.10547c-0.050781-4.7773-3.9531-8.6445-8.75-8.6445-4.8281 0-8.75 3.9219-8.75 8.75 0 23.66-15.086 43.594-34.773 43.75zm455 0h-0.22656c-4.8281 0-8.75 3.9219-8.75 8.75s3.9219 8.75 8.75 8.75c19.723 0 34.879 19.844 35 43.469v0.28125c0 4.8281 3.9219 8.75 8.75 8.75s8.75-3.9219 8.75-8.75c0-23.746 15.207-43.75 35-43.75 4.8281 0 8.75-3.9219 8.75-8.75 0-4.7969-3.8672-8.6992-8.6445-8.75h-0.10547c-19.793 0-35-20.004-35-43.75v-0.10547c-0.050781-4.7773-3.9531-8.6445-8.75-8.6445-4.8281 0-8.75 3.9219-8.75 8.75 0 23.66-15.086 43.594-34.773 43.75zm-411.48-9.9414c-4.3398 7.6133-10.098 14-16.781 18.691 6.6836 4.6914 12.441 11.078 16.781 18.691 4.3398-7.6133 10.098-14 16.781-18.691-6.6836-4.6914-12.441-11.078-16.781-18.691zm455 0c-4.3398 7.6133-10.098 14-16.781 18.691 6.6836 4.6914 12.441 11.078 16.781 18.691 4.3398-7.6133 10.098-14 16.781-18.691-6.6836-4.6914-12.441-11.078-16.781-18.691zm-253.75-39.043v13.984c0 14.488 11.762 26.25 26.25 26.25s26.25-11.762 26.25-26.25v-4.3906c-5.8086 2.7812-11.184 4.3906-15.312 4.3906-6.8945 0-16.641-3.2891-26.773-8.3633-3.4492-1.7148-6.9492-3.625-10.414-5.6211zm87.5-154-13.09-10.078-4.8633 14.578c-1.1211 3.3594-4.1484 5.7031-7.6836 5.9688-3.5195 0.24219-6.8594-1.6641-8.4375-4.8125l-14.609-29.227c-4.5508 1.2266-12.129 4.0234-22.227 10.43-3.4297 2.1719-5.1094 6.0039-6.1758 9.625-1.8555 6.1953-1.7148 12.285-1.6797 13.441 0.27734 7.3125-6.6172 8.957-8.3477 9.2578l-0.38672 0.050781h-0.38672c-1.9414-0.085938-3.7969-0.82422-5.2656-2.0664l-11.41-9.6758-9.5547 31.762c-1.1211 3.6914-4.5156 6.2305-8.3828 6.2305 0 0-4.1641 0.52344-7.2812-3.8867-0.62891-0.91016-4.0586-5.6328-8.6602-9.4844-2.418-2.0273-5.0938-4.1289-7.9805-4.1289-1.2773 0-1.5938 1.2266-1.8906 2.4688-0.64844 2.7305-0.54297 6.0703 0.015625 9.6602 1.4531 9.2734 6.1602 19.965 13.023 27.02 1.5195 1.5547 3.1328 2.9375 4.8633 4.043l-0.78906-7.4219c-0.50391-4.8125 2.9766-9.1172 7.7734-9.625 4.8125-0.50781 9.1172 2.9766 9.625 7.7695l6.1602 58.137c6.6836 4.8125 23.188 16.344 38.375 23.938 7.2461 3.6055 14.035 6.5117 18.953 6.5117 3.7109 0 8.6992-2.8359 14.141-6.1602 12.301-7.5078 25.637-18.883 31.098-23.695l5.0742-65.031zm-52.5 115.48h8.75c4.8281 0 8.75-3.9219 8.75-8.75s-3.9219-8.75-8.75-8.75h-8.75c-4.8281 0-8.75 3.9219-8.75 8.75s3.9219 8.75 8.75 8.75zm-13.578-69.074-17.5-8.75c-4.3242-2.168-9.5938-0.40234-11.746 3.9023-2.168 4.3242-0.40234 9.5938 3.9023 11.746l17.5 8.75c4.3242 2.168 9.5938 0.40234 11.746-3.9023 2.168-4.3242 0.40234-9.5938-3.9023-11.746zm35 15.648 17.5-8.75c4.3047-2.1523 6.0703-7.4219 3.9023-11.746-2.1523-4.3047-7.4219-6.0703-11.746-3.9023l-17.5 8.75c-4.3047 2.1523-6.0703 7.4219-3.9023 11.746 2.1523 4.3047 7.4219 6.0703 11.746 3.9023zm48.191-0.78906c5.3906-7.6641 8.6992-17.082 9.1016-24.762 0.10547-2.0469 0-3.957-0.4375-5.6016-0.41797-1.6602-1.3633-2.9219-3.2383-2.9219-1.7305 0-3.4297 0.61328-5.0391 1.5234v26.441zm-323.14-147.04h-0.22656c-4.8281 0-8.75 3.9219-8.75 8.75s3.9219 8.75 8.75 8.75c19.723 0 34.879 19.844 35 43.469v0.28125c0 4.8281 3.9219 8.75 8.75 8.75s8.75-3.9219 8.75-8.75c0-23.746 15.207-43.75 35-43.75 4.8281 0 8.75-3.9219 8.75-8.75 0-4.7969-3.8672-8.6992-8.6445-8.75h-0.10547c-19.793 0-35-20.004-35-43.75v-0.10547c-0.050781-4.7773-3.9531-8.6445-8.75-8.6445-4.8281 0-8.75 3.9219-8.75 8.75 0 23.66-15.086 43.594-34.773 43.75zm402.5 0h-0.22656c-4.8281 0-8.75 3.9219-8.75 8.75s3.9219 8.75 8.75 8.75c19.723 0 34.879 19.844 35 43.469v0.28125c0 4.8281 3.9219 8.75 8.75 8.75s8.75-3.9219 8.75-8.75c0-23.746 15.207-43.75 35-43.75 4.8281 0 8.75-3.9219 8.75-8.75 0-4.7969-3.8672-8.6992-8.6445-8.75h-0.10547c-19.793 0-35-20.004-35-43.75v-0.10547c-0.050781-4.7773-3.9531-8.6445-8.75-8.6445-4.8281 0-8.75 3.9219-8.75 8.75 0 23.66-15.086 43.594-34.773 43.75zm-358.98-9.9414c-4.3398 7.6133-10.098 14-16.781 18.691 6.6836 4.6914 12.441 11.078 16.781 18.691 4.3398-7.6133 10.098-14 16.781-18.691-6.6836-4.6914-12.441-11.078-16.781-18.691zm402.5 0c-4.3398 7.6133-10.098 14-16.781 18.691 6.6836 4.6914 12.441 11.078 16.781 18.691 4.3398-7.6133 10.098-14 16.781-18.691-6.6836-4.6914-12.441-11.078-16.781-18.691z" fill-rule="evenodd"/>
  <use x="70" y="691.25" xlink:href="#o"/>
  <use x="102.109375" y="691.25" xlink:href="#c"/>
  <use x="123.683594" y="691.25" xlink:href="#b"/>
  <use x="153.355469" y="691.25" xlink:href="#a"/>
  <use x="182.878906" y="691.25" xlink:href="#i"/>
  <use x="203.792969" y="691.25" xlink:href="#b"/>
  <use x="233.464844" y="691.25" xlink:href="#h"/>
  <use x="280.011719" y="691.25" xlink:href="#g"/>
  <use x="311.328125" y="691.25" xlink:href="#f"/>
  <use x="355.078125" y="691.25" xlink:href="#e"/>
  <use x="403.335937" y="691.25" xlink:href="#a"/>
  <use x="432.859375" y="691.25" xlink:href="#c"/>
  <use x="454.4375" y="691.25" xlink:href="#n"/>
  <use x="485.582031" y="691.25" xlink:href="#d"/>
  <use x="516.726562" y="691.25" xlink:href="#m"/>
  <use x="561.054688" y="691.25" xlink:href="#l"/>
  <use x="577.332031" y="691.25" xlink:href="#k"/>
  <use x="603.265625" y="691.25" xlink:href="#j"/>
  <use x="633.324219" y="691.25" xlink:href="#d"/>
 </g>
</svg>