<svg width="34" height="47" viewBox="0 0 34 47" fill="none" xmlns="http://www.w3.org/2000/svg">
<path fill-rule="evenodd" clip-rule="evenodd" d="M7.39546 4.34816C7.49416 4.21139 7.61141 4.10287 7.74049 4.02882C7.86957 3.95478 8.00796 3.91666 8.14771 3.91666C8.28747 3.91666 8.42585 3.95478 8.55493 4.02882C8.68402 4.10287 8.80127 4.21139 8.89996 4.34816L21.65 21.9732C21.7489 22.1096 21.8274 22.2717 21.881 22.4501C21.9345 22.6286 21.9621 22.8198 21.9621 23.013C21.9621 23.2062 21.9345 23.3975 21.881 23.576C21.8274 23.7544 21.7489 23.9165 21.65 24.0529L8.89996 41.6779C8.70045 41.9537 8.42986 42.1086 8.14771 42.1086C7.86556 42.1086 7.59497 41.9537 7.39546 41.6779C7.19595 41.4021 7.08387 41.0281 7.08387 40.638C7.08387 40.248 7.19595 39.874 7.39546 39.5982L19.3953 23.013L7.39546 6.42792C7.29652 6.29148 7.21801 6.1294 7.16445 5.95096C7.11088 5.77252 7.08331 5.58123 7.08331 5.38804C7.08331 5.19485 7.11088 5.00355 7.16445 4.82512C7.21801 4.64668 7.29652 4.4846 7.39546 4.34816Z" fill="white"/>
<path fill-rule="evenodd" clip-rule="evenodd" d="M15.8955 4.34816C15.9942 4.21139 16.1114 4.10287 16.2405 4.02882C16.3696 3.95478 16.508 3.91666 16.6477 3.91666C16.7875 3.91666 16.9258 3.95478 17.0549 4.02882C17.184 4.10287 17.3013 4.21139 17.4 4.34816L30.15 21.9732C30.2489 22.1096 30.3274 22.2717 30.381 22.4501C30.4345 22.6286 30.4621 22.8198 30.4621 23.013C30.4621 23.2062 30.4345 23.3975 30.381 23.576C30.3274 23.7544 30.2489 23.9165 30.15 24.0529L17.4 41.6779C17.2005 41.9537 16.9299 42.1086 16.6477 42.1086C16.3656 42.1086 16.095 41.9537 15.8955 41.6779C15.696 41.4021 15.5839 41.0281 15.5839 40.638C15.5839 40.248 15.696 39.874 15.8955 39.5982L27.8953 23.013L15.8955 6.42792C15.7965 6.29148 15.718 6.1294 15.6644 5.95096C15.6109 5.77252 15.5833 5.58123 15.5833 5.38804C15.5833 5.19485 15.6109 5.00355 15.6644 4.82512C15.718 4.64668 15.7965 4.4846 15.8955 4.34816Z" fill="white"/>
</svg>
