<svg width="34" height="47" viewBox="0 0 34 47" fill="none" xmlns="http://www.w3.org/2000/svg">
<path fill-rule="evenodd" clip-rule="evenodd" d="M26.6045 42.6518C26.5058 42.7886 26.3886 42.8971 26.2595 42.9712C26.1304 43.0452 25.992 43.0833 25.8523 43.0833C25.7125 43.0833 25.5741 43.0452 25.445 42.9712C25.316 42.8971 25.1987 42.7886 25.1 42.6518L12.35 25.0268C12.2511 24.8904 12.1726 24.7283 12.119 24.5499C12.0654 24.3714 12.0379 24.1802 12.0379 23.987C12.0379 23.7938 12.0654 23.6025 12.119 23.424C12.1726 23.2456 12.2511 23.0835 12.35 22.9471L25.1 5.32208C25.2995 5.04629 25.5701 4.89136 25.8523 4.89136C26.1344 4.89136 26.405 5.04629 26.6045 5.32208C26.804 5.59788 26.9161 5.97193 26.9161 6.36196C26.9161 6.75199 26.804 7.12604 26.6045 7.40183L14.6046 23.987L26.6045 40.5721C26.7035 40.7085 26.782 40.8706 26.8355 41.049C26.8891 41.2275 26.9167 41.4188 26.9167 41.612C26.9167 41.8051 26.8891 41.9964 26.8355 42.1749C26.782 42.3533 26.7035 42.5154 26.6045 42.6518Z" fill="white"/>
<path fill-rule="evenodd" clip-rule="evenodd" d="M18.1045 42.6518C18.0058 42.7886 17.8886 42.8971 17.7595 42.9712C17.6304 43.0452 17.492 43.0833 17.3523 43.0833C17.2125 43.0833 17.0741 43.0452 16.945 42.9712C16.816 42.8971 16.6987 42.7886 16.6 42.6518L3.85001 25.0268C3.75107 24.8904 3.67256 24.7283 3.619 24.5499C3.56543 24.3714 3.53786 24.1802 3.53786 23.987C3.53786 23.7938 3.56543 23.6025 3.619 23.424C3.67256 23.2456 3.75107 23.0835 3.85001 22.9471L16.6 5.32208C16.7995 5.04629 17.0701 4.89136 17.3523 4.89136C17.6344 4.89136 17.905 5.04629 18.1045 5.32208C18.304 5.59788 18.4161 5.97193 18.4161 6.36196C18.4161 6.75199 18.304 7.12604 18.1045 7.40183L6.10464 23.987L18.1045 40.5721C18.2035 40.7085 18.282 40.8706 18.3355 41.049C18.3891 41.2275 18.4167 41.4188 18.4167 41.612C18.4167 41.8051 18.3891 41.9964 18.3355 42.1749C18.282 42.3533 18.2035 42.5154 18.1045 42.6518Z" fill="white"/>
</svg>
