<svg width="17" height="13" viewBox="0 0 17 13" fill="none" xmlns="http://www.w3.org/2000/svg">
<path d="M11.6636 0C10.264 0 8.92066 0.573842 8.04388 1.48065C7.16709 0.573842 5.82377 0 4.42413 0C1.94662 0 0 1.71444 0 3.89646C0 6.57439 2.73492 8.7564 6.87751 12.0719L8.04388 13L9.21024 12.0649C13.3528 8.7564 16.0878 6.57439 16.0878 3.89646C16.0878 1.71444 14.1411 0 11.6636 0ZM8.12432 11.0163L8.04388 11.0872L7.96344 11.0163C4.13455 7.96294 1.60878 5.94387 1.60878 3.89646C1.60878 2.47956 2.81536 1.41689 4.42413 1.41689C5.66289 1.41689 6.86947 2.11826 7.2958 3.08883H8.8C9.21828 2.11826 10.4249 1.41689 11.6636 1.41689C13.2724 1.41689 14.479 2.47956 14.479 3.89646C14.479 5.94387 11.9532 7.96294 8.12432 11.0163Z" fill="white"/>
</svg>
