<svg width="54" height="8" viewBox="0 0 54 8" fill="none" xmlns="http://www.w3.org/2000/svg">
<g clip-path="url(#clip0_34_65)">
<path d="M2.25666 7.80509C2.01541 7.90409 1.74166 7.73059 1.79041 7.50909L2.30916 5.14409L0.107283 3.46609C-0.0983416 3.30909 0.00853339 3.02209 0.284158 2.99109L3.34541 2.64309L4.71041 0.479586C4.83353 0.284586 5.16666 0.284586 5.28978 0.479586L6.65478 2.64309L9.71603 2.99109C9.99166 3.02209 10.0985 3.30909 9.89228 3.46609L7.69103 5.14409L8.20978 7.50909C8.25853 7.73059 7.98478 7.90409 7.74353 7.80509L4.99916 6.67709L2.25603 7.80509H2.25666Z" fill="#FDE404"/>
</g>
<g clip-path="url(#clip1_34_65)">
<path d="M12.2567 7.80509C12.0154 7.90409 11.7417 7.73059 11.7904 7.50909L12.3092 5.14409L10.1073 3.46609C9.90166 3.30909 10.0085 3.02209 10.2842 2.99109L13.3454 2.64309L14.7104 0.479586C14.8335 0.284586 15.1667 0.284586 15.2898 0.479586L16.6548 2.64309L19.716 2.99109C19.9917 3.02209 20.0985 3.30909 19.8923 3.46609L17.691 5.14409L18.2098 7.50909C18.2585 7.73059 17.9848 7.90409 17.7435 7.80509L14.9992 6.67709L12.256 7.80509H12.2567Z" fill="#FDE404"/>
</g>
<g clip-path="url(#clip2_34_65)">
<path d="M22.2567 7.80509C22.0154 7.90409 21.7417 7.73059 21.7904 7.50909L22.3092 5.14409L20.1073 3.46609C19.9017 3.30909 20.0085 3.02209 20.2842 2.99109L23.3454 2.64309L24.7104 0.479586C24.8335 0.284586 25.1667 0.284586 25.2898 0.479586L26.6548 2.64309L29.716 2.99109C29.9917 3.02209 30.0985 3.30909 29.8923 3.46609L27.691 5.14409L28.2098 7.50909C28.2585 7.73059 27.9848 7.90409 27.7435 7.80509L24.9992 6.67709L22.256 7.80509H22.2567Z" fill="#FDE404"/>
</g>
<g clip-path="url(#clip3_34_65)">
<path d="M34.2567 7.80509C34.0154 7.90409 33.7417 7.73059 33.7904 7.50909L34.3092 5.14409L32.1073 3.46609C31.9017 3.30909 32.0085 3.02209 32.2842 2.99109L35.3454 2.64309L36.7104 0.479586C36.8335 0.284586 37.1667 0.284586 37.2898 0.479586L38.6548 2.64309L41.716 2.99109C41.9917 3.02209 42.0985 3.30909 41.8923 3.46609L39.691 5.14409L40.2098 7.50909C40.2585 7.73059 39.9848 7.90409 39.7435 7.80509L36.9992 6.67709L34.256 7.80509H34.2567Z" fill="#FDE404"/>
</g>
<g clip-path="url(#clip4_34_65)">
<path d="M47.3456 2.64284L48.7106 0.479336C48.7368 0.435813 48.7778 0.399053 48.8289 0.373241C48.8799 0.347429 48.939 0.333603 48.9994 0.333336C49.1138 0.333336 49.2281 0.381836 49.29 0.479336L50.655 2.64284L53.7163 2.99084C53.7926 3.00043 53.8624 3.03079 53.914 3.07679C53.9655 3.12279 53.9957 3.18161 53.9994 3.24334C54.0037 3.28443 53.9965 3.32578 53.9781 3.36431C53.9597 3.40283 53.9306 3.43754 53.8931 3.46584L51.6913 5.14384L52.21 7.50884C52.2588 7.73034 51.985 7.90384 51.7438 7.80484L48.9994 6.67684L46.2563 7.80484C46.2276 7.81675 46.1968 7.82518 46.165 7.82984C45.9513 7.85984 45.7475 7.70284 45.79 7.50884L46.3088 5.14384L44.1075 3.46584C44.0733 3.43993 44.0461 3.40868 44.0276 3.37402C44.0091 3.33936 43.9997 3.30202 44 3.26434C44 3.21105 44.0184 3.15881 44.0531 3.11334C44.0778 3.08037 44.1113 3.05225 44.1513 3.03105C44.1914 3.00985 44.2368 2.9961 44.2844 2.99084L47.3456 2.64284ZM48.9994 6.09684C49.0498 6.09667 49.0996 6.10628 49.1444 6.12484L51.4481 7.07184L51.0144 5.09334C51.0041 5.04783 51.008 5.00102 51.0257 4.95699C51.0433 4.91297 51.0742 4.87308 51.1156 4.84084L52.9325 3.45584L50.4 3.16784C50.3476 3.1615 50.2978 3.14509 50.255 3.12001C50.2123 3.09493 50.1777 3.06193 50.1544 3.02384L49 1.19484L48.9994 1.19634V6.09634V6.09684Z" fill="#FDE404"/>
</g>
<defs>
<clipPath id="clip0_34_65">
<rect width="10" height="8" fill="white"/>
</clipPath>
<clipPath id="clip1_34_65">
<rect width="10" height="8" fill="white" transform="translate(10)"/>
</clipPath>
<clipPath id="clip2_34_65">
<rect width="10" height="8" fill="white" transform="translate(20)"/>
</clipPath>
<clipPath id="clip3_34_65">
<rect width="10" height="8" fill="white" transform="translate(32)"/>
</clipPath>
<clipPath id="clip4_34_65">
<rect width="10" height="8" fill="white" transform="translate(44)"/>
</clipPath>
</defs>
</svg>
