<svg width="16" height="15" viewBox="0 0 16 15" fill="none" xmlns="http://www.w3.org/2000/svg">
<path d="M8 12.5C9.41449 12.5 10.771 11.9732 11.7712 11.0355C12.7714 10.0979 13.3333 8.82608 13.3333 7.5C13.3333 6.17392 12.7714 4.90215 11.7712 3.96447C10.771 3.02678 9.41449 2.5 8 2.5C6.58551 2.5 5.22896 3.02678 4.22876 3.96447C3.22857 4.90215 2.66667 6.17392 2.66667 7.5C2.66667 8.82608 3.22857 10.0979 4.22876 11.0355C5.22896 11.9732 6.58551 12.5 8 12.5ZM8 13.75C4.318 13.75 1.33333 10.9519 1.33333 7.5C1.33333 4.04813 4.318 1.25 8 1.25C11.682 1.25 14.6667 4.04813 14.6667 7.5C14.6667 10.9519 11.682 13.75 8 13.75ZM7.33333 1.875H8.66667V8.125H7.33333V1.875ZM7.33333 6.875H14V8.125H7.33333V6.875Z" fill="white"/>
</svg>
